<svg xmlns="http://www.w3.org/2000/svg" viewBox="0 0 271.21 308.27"><defs><style>.cls-1{fill:#10bc6d;}</style></defs><g id="Layer_2" data-name="Layer 2"><g id="Layer_1-2" data-name="Layer 1"><path class="cls-1" d="M194.45,106.51a.11.11,0,0,0-.07-.1c-.85-.94-1.69-1.88-2.55-2.81s-1.53-1.68-2.32-2.51c-.63-.68-1.26-1.35-1.9-2q-5.7-6-11.74-11.62a.11.11,0,0,0,0,0q-7.17,4.16-14,8.76c-.63.41-1.25.83-1.87,1.25-1.76,1.2-3.51,2.43-5.24,3.67-2.08,1.49-4.13,3-6.16,4.57q5.85,5.19,11.4,10.72l.37.37c.09.09.19.2.29.29q5.53,5.56,10.73,11.41l1.52-1.12,1.22-.87,1.87-1.32,2.1-1.44q2.19-1.5,4.42-2.94l2.06-1.31.11-.07c.62-.39,1.24-.78,1.87-1.16l1.93-1.18c1.13-.68,2.27-1.36,3.42-2l1.68-1c1.68-1,3.39-1.9,5.11-2.81C197.24,109.66,195.86,108.08,194.45,106.51Z"/><path class="cls-1" d="M117.3,101.09c-1.73-1.24-3.48-2.47-5.24-3.67l-1.87-1.26q-6.87-4.59-14.06-8.76s0,0,0,0q-6,5.63-11.73,11.62c-.65.68-1.29,1.35-1.93,2s-1.54,1.65-2.3,2.49-1.71,1.87-2.55,2.82c0,0-.07,0-.07.06v0c-1.41,1.57-2.81,3.16-4.18,4.77,1.15.6,2.29,1.22,3.42,1.85S79,114.37,80.15,115s2.29,1.33,3.42,2l1.93,1.18c.63.39,1.27.78,1.9,1.19s1.48.93,2.2,1.4,1.43.92,2.13,1.4,1.14.74,1.7,1.13,1,.66,1.47,1c1,.71,2,1.41,3,2.13.54.37,1.06.75,1.59,1.14l1.16.84q5.19-5.85,10.72-11.4l.31-.31.36-.36q5.53-5.5,11.39-10.72C121.42,104.1,119.37,102.57,117.3,101.09Z"/><path class="cls-1" d="M245.34,92.79l-.32.08c-1.77.48-3.55,1-5.31,1.51-2,.58-3.93,1.2-5.88,1.84l-1.33.44-2,.68-.93.32-.59.21-2.28.82c-.65.23-1.28.47-1.91.72s-1.5.56-2.23.84-1.42.55-2.12.84l-.1,0-.1,0c-.66.26-1.32.53-2,.81q-1.23.49-2.43,1l-1.84.79-.07,0-.52.22c-.83-1-1.67-2-2.5-3-1-1.2-2.09-2.41-3.14-3.6-.48-.53-1-1.07-1.43-1.61a.15.15,0,0,0-.08-.1c-1.27-1.43-2.57-2.84-3.87-4.25-1.73-1.87-3.49-3.73-5.28-5.56-.26-.28-.53-.55-.81-.83-1.48-1.52-3-3-4.48-4.49-.4-.4-.8-.79-1.2-1.16l1.2-.59q7-3.47,14.36-6.46l1.59-.65q3.34-1.37,6.73-2.61l2-.73,1.13-.41,1.93-.68.46-.16.39-.14,2.11-.71c.42.42.82.85,1.21,1.27l1.46,1.56q2.46,2.64,4.85,5.32a.16.16,0,0,1,.09.12c1.41,1.56,2.79,3.14,4.17,4.73,1.66,1.91,3.28,3.84,4.89,5.79l.5.6Q242.56,89.22,245.34,92.79Z"/><path class="cls-1" d="M210,53.84c-.73.26-1.47.53-2.2.81-1.15.43-2.29.88-3.43,1.32l-1.17.47q-1.08.42-2.16.87l-.63.26c-.8.33-1.61.66-2.4,1l-1.12.47-3.23,1.42-1.81.8q-7,3.16-13.75,6.69c-.73-.64-1.46-1.28-2.21-1.91q-5.42-4.67-11-9.05c-1.62-1.28-3.24-2.53-4.88-3.76,0,0,0,0,0,0q-3.6-2.73-7.28-5.33l-1.84-1.29,1.14-.66c2.64-1.53,5.29-3,8-4.47L162.7,40c1.21-.64,2.42-1.26,3.63-1.87l1.65-.83c2.6-1.32,5.24-2.59,7.89-3.82,2.25-1,4.5-2.06,6.78-3q4.35,3.36,8.6,6.86c.19.16.39.31.58.48q2.44,2,4.86,4.11c1.94,1.65,3.86,3.34,5.77,5.05s3.57,3.21,5.32,4.86c.52.47,1,.95,1.56,1.45Z"/><path class="cls-1" d="M167.85,19.6l-3.6,1.72q-2.17,1-4.33,2.15-4.23,2.13-8.38,4.39-3.82,2.07-7.57,4.25-4,2.31-8,4.77-3.94-2.46-8-4.76-3.75-2.17-7.58-4.25-4.16-2.25-8.37-4.38-2.18-1.11-4.38-2.17l-3.57-1.71q2.64-1.83,5.33-3.61c.87-.58,1.74-1.16,2.62-1.73q3.76-2.46,7.61-4.83,4.13-2.53,8.34-5Q132,2.19,136,0q4,2.19,8,4.48,4.2,2.41,8.33,5c2.56,1.58,5.11,3.2,7.62,4.85L162.5,16C164.29,17.17,166.08,18.37,167.85,19.6Z"/><path class="cls-1" d="M158.77,138.37l-.36.31c-.88.74-1.74,1.5-2.6,2.25s-1.95,1.74-2.92,2.63-1.89,1.74-2.82,2.62l-.1.1c-.93.88-1.86,1.77-2.77,2.67-1.1,1.06-2.17,2.14-3.23,3.23-.51.51-1,1-1.49,1.53-1.62,1.69-3.22,3.39-4.78,5.12-.56.63-1.13,1.26-1.68,1.89l0,0,0,0c-.55-.63-1.12-1.26-1.68-1.89-1.56-1.73-3.16-3.43-4.78-5.12-.49-.51-1-1-1.49-1.53q-1.59-1.63-3.23-3.23c-.92-.9-1.84-1.79-2.77-2.67l-.1-.1c-.93-.88-1.87-1.75-2.82-2.62s-1.94-1.76-2.92-2.63-1.73-1.51-2.6-2.25l-.36-.31c1.62-1.82,3.26-3.61,4.94-5.37q3-3.18,6.09-6.22,1.86-1.84,3.77-3.65,3.28-3.1,6.66-6.09.66-.58,1.32-1.14.66.55,1.32,1.14,3.38,3,6.66,6.09c1.27,1.21,2.54,2.43,3.79,3.67q3.11,3,6.07,6.2C155.51,134.76,157.15,136.55,158.77,138.37Z"/><path class="cls-1" d="M121.18,46.6c-.62.42-1.23.85-1.84,1.28v0q-3.69,2.6-7.28,5.3l0,0c-1.64,1.23-3.27,2.47-4.88,3.74q-5.62,4.38-11,9c-.75.64-1.5,1.28-2.25,1.94q-6.75-3.54-13.71-6.69c-.61-.28-1.23-.55-1.84-.81-.85-.38-1.69-.75-2.55-1.11s-1.61-.7-2.42-1-1.66-.7-2.5-1-1.7-.7-2.55-1c-.38-.16-.75-.3-1.13-.44-1-.39-2-.77-3-1.14L62,53.83l.62-.6,1.61-1.49q2.63-2.46,5.32-4.85c1.9-1.71,3.81-3.39,5.75-5q2.42-2.1,4.88-4.12l.55-.45c2.83-2.33,5.71-4.62,8.61-6.86q3.42,1.48,6.8,3.06,4,1.83,7.86,3.8c.56.27,1.12.55,1.67.84l3.41,1.76c1,.52,2,1.06,3,1.6,2.69,1.44,5.34,2.93,8,4.46Z"/><path class="cls-1" d="M81.32,79.47l-1.17,1.14c-1.52,1.49-3,3-4.51,4.53q-.45.44-.87.87c-1.75,1.81-3.49,3.64-5.19,5.5-1.31,1.4-2.59,2.82-3.87,4.26,0,0-.08,0-.08.06v0c-.48.53-1,1.08-1.43,1.62q-1.61,1.8-3.16,3.62c-.84,1-1.68,2-2.5,2.94l-.63-.27L56.13,103c-.8-.35-1.62-.69-2.43-1s-1.38-.58-2.07-.85q-9.48-3.81-19.36-6.75c-.94-.28-1.87-.55-2.81-.81s-1.89-.53-2.84-.78q2.79-3.58,5.67-7.09l.47-.56q2.43-2.94,4.91-5.82l2-2.24h0c.73-.83,1.46-1.65,2.2-2.47v0s0,0,.08-.06c1.6-1.79,3.2-3.56,4.85-5.32.47-.52,1-1.05,1.46-1.57l1.2-1.27,1.59.55c.54.17,1.08.36,1.62.55l1.61.57c1.08.38,2.14.77,3.21,1.17q3.39,1.25,6.73,2.61l1.56.64q7.32,3,14.39,6.47C80.54,79.09,80.93,79.27,81.32,79.47Z"/><path class="cls-1" d="M163.29,76.28c-1.12.68-2.25,1.37-3.37,2.08-3.49,2.17-6.93,4.44-10.32,6.78l-.35.24c-1.77,1.22-3.54,2.48-5.28,3.75q-4,3-8,6.05-3.93-3.09-8-6c-1.74-1.28-3.51-2.54-5.29-3.76l-.35-.24q-5.07-3.51-10.31-6.78c-1.13-.71-2.27-1.41-3.4-2.09,1.13-.94,2.26-1.89,3.4-2.81s2-1.65,3-2.46c.76-.61,1.54-1.22,2.31-1.82q2.23-1.74,4.52-3.45c2-1.49,4-3,6.07-4.4l.54-.4v0q3.64-2.56,7.35-5l.08,0,.07,0c2.48,1.61,4.95,3.31,7.37,5l.55.39Q147,63.48,150,65.75c1.5,1.12,3,2.27,4.5,3.43l2.3,1.81c1,.83,2.06,1.66,3.08,2.49S162.18,75.33,163.29,76.28Z"/><path class="cls-1" d="M261.23,121.73c-1.87.42-3.74.87-5.59,1.35q-3.45.89-6.84,1.9-4.61,1.36-9.11,3l-.57.2c-2,.71-4,1.45-5.92,2.23q-3.19,1.24-6.35,2.63c-1,.46-2.08.92-3.12,1.41-1.37.63-2.73,1.27-4.09,1.94a.52.52,0,0,0-.13.06l-.39.19-.12.07a2.3,2.3,0,0,0-.42.2l-.17.08s0,0,0,0c-.91.44-1.8.88-2.68,1.35h0c-.88.46-1.75.91-2.61,1.38l-1.15.62-.89.49c-1.07.59-2.15,1.21-3.22,1.82l-2,1.18-1.42.86c-.53.31-1,.63-1.56,1-.27.16-.53.32-.78.49l-.79.49-.16.1-.68.43-.57.37-.06,0L197.64,149q-2.94,2-5.81,4l-.75.54q-6.48,4.71-12.53,9.93h0c-.56.47-1.13,1-1.68,1.46-.33.28-.67.58-1,.88-3.12,2.79-6.15,5.7-9.08,8.69q-3.07,3.12-6,6.38l-.89,1q-2.13,2.4-4.16,4.88-4.5-6.92-9.51-13.47c.46-.55.93-1.08,1.4-1.62s.72-.82,1.09-1.22q3.49-3.93,7.18-7.66l1.36-1.36c.44-.44.87-.87,1.32-1.3s.87-.86,1.32-1.28l2-1.94c1.57-1.45,3.14-2.89,4.76-4.3.7-.62,1.41-1.23,2.12-1.84a4.09,4.09,0,0,1,.33-.28c.6-.52,1.21-1,1.81-1.52.89-.75,1.79-1.48,2.69-2.21l2.2-1.74,2.32-1.78,1-.76,0,0,.16-.12,2.18-1.61c.78-.57,1.57-1.14,2.37-1.7l.15-.11q1.28-.9,2.55-1.77c.69-.47,1.38-.94,2.08-1.39l.82-.55c.76-.5,1.52-1,2.29-1.49l1.09-.69,1.91-1.2,1.16-.7c1.24-.77,2.49-1.5,3.75-2.22l.18-.11a17285864973727.32,17285864973727.32,0,0,0,.84-.48c.69-.4,1.38-.79,2.08-1.17a1.13,1.13,0,0,1,.21-.12l1.11-.61,1.11-.6,0,0,.15-.08.09,0h0c.25-.15.51-.28.77-.42l1.43-.76c.37-.19.73-.39,1.11-.57.72-.37,1.44-.74,2.18-1.1l1.43-.71,2.4-1.15c.63-.31,1.28-.61,1.93-.91l.75-.34c.89-.41,1.78-.81,2.68-1.2l.79-.34c.84-.37,1.7-.73,2.55-1.09h.13V117l.57-.24,0,0,2.41-1c.5-.2,1-.41,1.52-.6l1.53-.58,2.2-.83c.75-.28,1.49-.54,2.23-.8.14,0,.28-.11.42-.15.79-.28,1.59-.56,2.4-.82s1.75-.59,2.63-.87c.59-.2,1.19-.39,1.79-.57,1.8-.57,3.62-1.11,5.44-1.63l1.77-.49,1.82-.48,1.82-.47,1.84-.46.92,1.69c.41.76.8,1.51,1.19,2.28.28.52.54,1.06.81,1.59s.51,1,.76,1.56c.09.17.18.36.26.53l.73,1.56a1.47,1.47,0,0,0,.1.22l.28.61.46,1c.24.55.48,1.09.71,1.64S261,121.06,261.23,121.73Z"/><path class="cls-1" d="M269.7,152.54c-1.67.36-3.33.74-5,1.17-.56.13-1.12.27-1.67.42l-2.28.61-.38.11-1.95.55-.51.16-2.3.7c-.84.26-1.67.52-2.5.81l-1.61.54-1.54.55a.28.28,0,0,0-.13,0l-.08,0c-.36.12-.72.24-1.08.38-1.11.4-2.23.82-3.34,1.26l-.57.22c-1.13.45-2.26.91-3.39,1.39l-1.71.73c-1.33.59-2.66,1.19-4,1.81l-.55.26-1.29.62-1.93,1c-1.16.58-2.32,1.18-3.46,1.8-.76.4-1.51.81-2.26,1.23s-1.43.79-2.14,1.2-1.51.88-2.26,1.33l-.72.43-.33.2q-1.65,1-3.27,2c-.76.48-1.5,1-2.25,1.47-1,.66-2,1.32-2.93,2l-1.8,1.26c-2.07,1.5-4.11,3-6.1,4.62L203,184.62l-1.5,1.23-1.06.89c-.43.36-.86.73-1.28,1.11s-.64.54-1,.82l-1.12,1c-.6.52-1.19,1.06-1.77,1.61s-1.16,1.07-1.74,1.62q-3.51,3.34-6.83,6.91l-1.3,1.41-.91,1-.94,1.07a.27.27,0,0,0-.07.08c-.63.71-1.25,1.43-1.87,2.16a.86.86,0,0,0-.07.1c-.66.76-1.3,1.54-1.94,2.32l-1.89,2.38c-.59.76-1.18,1.52-1.76,2.3-1.19,1.57-2.34,3.17-3.48,4.79q-3.67-8.22-8-16.07c.42-.55.85-1.1,1.28-1.64l.75-1,.06-.06.18-.23.83-1,.52-.64.32-.37c.59-.71,1.19-1.42,1.79-2.12l.33-.39,1.62-1.86.22-.23c.55-.63,1.1-1.23,1.65-1.84l.13-.14,1.3-1.41.57-.6c.51-.54,1-1.07,1.55-1.61s1.32-1.35,2-2c.41-.43.83-.83,1.25-1.24l.55-.53c.55-.54,1.1-1.06,1.66-1.59l1.84-1.72,1.61-1.46.78-.7.46-.4h0c.54-.48,1.09-1,1.65-1.43.08-.07.15-.14.22-.19.65-.55,1.29-1.1,2-1.64l.24-.2c1.09-.91,2.2-1.8,3.32-2.68.55-.44,1.11-.87,1.67-1.29l1.68-1.28,1.7-1.25,1.49-1.08.89-.62c.77-.55,1.53-1.08,2.31-1.61l.49-.33,2.34-1.55.16-.1,1.46-.95,1.7-1.06,1.87-1.15.21-.12a5.48,5.48,0,0,1,.52-.31c.5-.31,1-.59,1.5-.89l1-.59.82-.46.26-.15c.48-.28,1-.55,1.45-.81l.09-.06.23-.11c.38-.22.75-.43,1.14-.63.83-.45,1.66-.9,2.5-1.33.66-.35,1.33-.69,2-1,1.15-.59,2.32-1.16,3.49-1.72l2.17-1c.77-.36,1.54-.7,2.32-1l1.68-.74.15-.06c.52-.22,1-.45,1.56-.66a.31.31,0,0,1,.1,0l1.73-.7,1.85-.74c.76-.29,1.53-.59,2.3-.87l2.13-.79.07,0,2.15-.76h0l2.31-.77L251,141q2.33-.74,4.67-1.39l1.92-.53c.67-.19,1.35-.36,2-.54s1.44-.37,2.16-.54l.74-.18.31-.08,1.37-.31,2.22-.5c.15.53.29,1.07.44,1.6s.31,1.21.45,1.81c.34,1.34.65,2.69.93,4.06l.24,1.09c.15.73.28,1.45.43,2.18.08.43.15.85.23,1.28.2,1.09.37,2.18.54,3.27C269.67,152.33,269.68,152.43,269.7,152.54Z"/><path class="cls-1" d="M271.21,172.88c0,1.28,0,2.55,0,3.82,0,.63,0,1.26-.07,1.89,0,.39,0,.77,0,1.14s0,.75-.06,1.13c0,.7-.09,1.41-.14,2.11,0,.51-.07,1-.11,1.49l-.06.67h0c-2.36.63-4.68,1.31-7,2.07-2.72.89-5.39,1.88-8,2.94h0c-2.29.93-4.55,1.93-6.77,3-1.83.86-3.64,1.78-5.42,2.73l-.08,0c-.57.3-1.13.61-1.69.92s-1.33.74-2,1.13q-2.48,1.42-4.88,3-2.7,1.72-5.29,3.58c-.66.46-1.31.94-2,1.42-1.3,1-2.56,1.93-3.83,2.94q-1.12.9-2.22,1.83c-.82.68-1.63,1.38-2.43,2.09a126.81,126.81,0,0,0-10.11,10c-.4.44-.8.87-1.19,1.32-1.34,1.53-2.65,3.07-3.92,4.66-2.35,2.94-4.57,6-6.66,9.12q-2.23,3.33-4.26,6.83c-.37.66-.75,1.31-1.11,2a126.85,126.85,0,0,0-5.68,11.59,221.89,221.89,0,0,0-6.45-22.51h0c1.41-2.38,2.87-4.71,4.4-7q3.15-4.69,6.64-9.13l1.09-1.35q2.25-2.81,4.66-5.47,2.89-3.26,6-6.34h0c1.71-1.69,3.47-3.35,5.27-4.95s3.61-3.15,5.47-4.66l1.79-1.43q4.23-3.3,8.69-6.29l1.21-.8.29-.18c.54-.36,1.08-.71,1.63-1.05.23-.15.46-.3.7-.44l.79-.49c.15-.1.32-.21.49-.3.59-.37,1.19-.73,1.79-1.08l2.2-1.27.21-.12.2-.11.57-.32.28-.16.49-.26.46-.25c.28-.16.55-.31.83-.45l1.79-.95c.67-.34,1.35-.69,2-1l.83-.41.21-.1h0q.52-.27,1-.51l.4-.19.21-.11.34-.16,1.38-.63.71-.32.88-.39c.14-.06.28-.13.42-.18l.56-.25c1.25-.54,2.52-1.07,3.79-1.57l1.06-.41c1-.41,2.07-.8,3.11-1.18l1-.35,1.57-.54a140.75,140.75,0,0,1,13.93-4C271.19,170,271.21,171.44,271.21,172.88Z"/><path class="cls-1" d="M92.28,235.72a219.33,219.33,0,0,0-6.45,22.51q-2.56-6-5.68-11.59l-1.12-2c-1.34-2.32-2.76-4.59-4.24-6.82q-3.14-4.72-6.68-9.13c-1.26-1.59-2.57-3.13-3.91-4.66-.39-.45-.79-.88-1.19-1.32a128.64,128.64,0,0,0-10.12-10c-.79-.71-1.6-1.41-2.42-2.09s-1.48-1.23-2.23-1.83c-1.26-1-2.52-2-3.82-2.94-.65-.48-1.3-1-2-1.42s-1-.73-1.55-1.09l-.76-.53c-.35-.23-.68-.46-1-.68s-.6-.41-.9-.6l-1-.68c-.82-.53-1.66-1-2.49-1.55h0c-.78-.49-1.57-.95-2.37-1.41-.65-.39-1.32-.76-2-1.13-1.12-.62-2.26-1.23-3.4-1.82s-2.52-1.27-3.8-1.88q-3.33-1.58-6.77-3h0c-2.64-1.07-5.33-2-8-2.95-2.55-.84-5.13-1.59-7.76-2.26h0s0-.08,0-.12a.62.62,0,0,1,0-.13,2.46,2.46,0,0,1,0-.26s0,0,0-.08,0-.24,0-.37,0-.25,0-.37,0-.33,0-.5c0-.37,0-.75-.08-1.12s0-.75-.07-1.12c0-.53-.05-1.05-.08-1.59l0-.68q-.06-1.36-.09-2.73v-.25q0-1.37,0-2.73c0-1.5,0-3,.07-4.48l.31.06a144.29,144.29,0,0,1,14.38,4.07l1.58.55,1,.35c1,.38,2.08.77,3.11,1.18.24.08.48.18.71.27l.35.14q1.86.73,3.69,1.53c.22.09.44.18.66.29a3.79,3.79,0,0,1,.42.18l1.06.47,2.25,1,.21.11,1.25.59,1.25.62c.68.33,1.36.68,2,1l1.79.95.65.34a1.32,1.32,0,0,1,.2.12c.46.24.91.49,1.36.74l.89.51q1.08.6,2.13,1.23t1.8,1.08c.17.09.33.2.49.3l.45.28,1.37.86c.94.59,1.87,1.2,2.79,1.82q4.47,3,8.7,6.29l1.79,1.43q2.79,2.26,5.47,4.66c1.8,1.6,3.56,3.26,5.27,4.95q3.11,3.09,6,6.35c1.61,1.78,3.15,3.6,4.66,5.47.38.45.74.91,1.1,1.37,2.32,2.94,4.54,6,6.63,9.11C89.41,231,90.88,233.34,92.28,235.72Z"/><path class="cls-1" d="M107.48,201.36q-4.31,7.84-8,16.07l-.35-.48-.34-.48c-.49-.69-1-1.38-1.48-2.06-.33-.46-.67-.91-1-1.36l-.21-.28a0,0,0,0,1,0,0l-.8-1-.15-.2c-.57-.75-1.14-1.49-1.74-2.22-.19-.25-.38-.49-.58-.73-.63-.79-1.27-1.58-1.94-2.37h0c-.75-.9-1.5-1.78-2.27-2.65a1.46,1.46,0,0,0-.16-.19c-.2-.24-.41-.46-.61-.69L86.32,201l-.56-.61c-.59-.65-1.2-1.29-1.8-1.92l0,0c-.37-.4-.76-.8-1.15-1.19l-.38-.4c-.74-.76-1.49-1.51-2.26-2.25-.37-.37-.75-.74-1.12-1.09-.77-.75-1.54-1.48-2.33-2.2a3.32,3.32,0,0,1-.27-.25c-.83-.76-1.67-1.52-2.52-2.26-.49-.43-1-.87-1.47-1.29s-.82-.71-1.25-1.06l-.54-.45-1.21-1c-.5-.42-1-.83-1.53-1.24l-2-1.61,0,0c-.53-.42-1.07-.82-1.62-1.23,0,0,0,0,0,0l0,0-1.1-.81c-.93-.69-1.87-1.37-2.83-2l0,0c-.77-.54-1.55-1.08-2.34-1.61l-.49-.34c-.61-.4-1.21-.81-1.83-1.2-2.31-1.52-4.66-3-7.06-4.36l-.24-.14c-.42-.25-.85-.49-1.28-.73s-1-.58-1.52-.85c-1-.57-2.06-1.12-3.1-1.67s-2.07-1.07-3.13-1.58c-.36-.2-.73-.38-1.1-.55l-.48-.23c-1.06-.51-2.12-1-3.19-1.49l-2.15-1c-.89-.39-1.79-.78-2.7-1.14l-.22-.1c-.77-.33-1.55-.64-2.34-.95l-.12,0c-.16-.06-.31-.13-.47-.18l-.13-.05-1.26-.49-.93-.35-1-.37-1.77-.63c-.29-.11-.57-.22-.87-.31s-.54-.19-.81-.27c-1.09-.39-2.19-.75-3.3-1.09-.59-.18-1.19-.37-1.79-.54l-1.71-.5q-1.71-.51-3.45-1l-1.73-.45-1.24-.31-.51-.12c-1.44-.36-2.89-.69-4.36-1h0l.12-.75c0-.25.08-.5.12-.75q.15-1,.33-1.92c.09-.52.18-1,.28-1.54l.15-.76c.09-.51.2-1,.31-1.54s.27-1.28.41-1.92.29-1.27.44-1.9.24-1,.37-1.5c.25-1,.52-2,.8-3,1.6.33,3.19.69,4.78,1.08h0l2.38.59,2.36.63,1.93.53,2.34.68,2.24.68c1,.32,2,.65,3.06,1l1.65.56c2.24.77,4.47,1.59,6.66,2.44.8.31,1.59.63,2.37.95l2.36,1,2.34,1c.76.33,1.51.67,2.26,1,1,.44,2,.91,2.93,1.37l.26.12,1.47.73L48,152l.23.11,1.49.78L51.79,154l1.34.73,1.68,1c.52.28,1,.58,1.55.87l1.07.64,1.43.86q4.23,2.53,8.28,5.3c.52.35,1,.7,1.54,1.07.24.15.48.32.71.49L71,166l1.17.84.38.29c1,.76,2,1.52,3.06,2.31L77,170.56l.27.21,1.35,1.08c.65.52,1.3,1.06,1.93,1.59s1.17,1,1.74,1.46q2.31,2,4.54,4l1.88,1.75.22.21,1.6,1.52c1.31,1.26,2.59,2.55,3.86,3.85l1.74,1.82.35.37c1.27,1.37,2.52,2.74,3.76,4.14s2.25,2.59,3.35,3.92c.75.9,1.49,1.81,2.23,2.73Z"/><path class="cls-1" d="M125.73,173.27q-5,6.54-9.5,13.46-2-2.47-4.17-4.87c-.29-.34-.58-.67-.89-1-1.93-2.17-3.93-4.3-6-6.37-2.94-3-6-5.91-9.1-8.7-.33-.3-.67-.6-1-.88-.55-.5-1.11-1-1.67-1.47q-6.06-5.22-12.54-9.93l-.75-.54c-1.91-1.38-3.84-2.72-5.81-4q-3.32-2.2-6.72-4.27l-.14-.08c-.16-.11-.34-.21-.51-.31l-.33-.2c-.81-.49-1.62-1-2.44-1.44-1.05-.61-2.1-1.2-3.15-1.78l-.81-.45c-1.32-.72-2.64-1.42-4-2.11-.89-.46-1.79-.92-2.7-1.36s-1.76-.87-2.64-1.3-1.78-.84-2.68-1.25-2.06-1-3.1-1.4c-2.11-.92-4.23-1.8-6.39-2.65-1.94-.77-3.92-1.51-5.89-2.22l-.57-.2q-4.51-1.61-9.12-3c-2.25-.67-4.54-1.31-6.83-1.9-2.09-.54-4.18-1-6.3-1.5.31-.77.63-1.52,1-2.28s.56-1.28.85-1.92c.08-.2.18-.41.27-.6.28-.62.56-1.23.85-1.83l.06-.15c.35-.72.7-1.44,1.06-2.16l.84-1.67.18-.34c.08-.16.17-.32.25-.49a.59.59,0,0,0,0-.08c.31-.58.62-1.17.94-1.75s.53-1,.8-1.47c1.29.31,2.56.63,3.84,1l1.42.37q5,1.35,9.89,2.93l.39.13,1.79.59,1.3.44,1.68.58q1,.34,2,.72l2,.76.33.12.33.12h0l1.5.59q1.06.41,2.13.84l2.12.87.34.14,1.22.51,2,.85,1.64.73q.57.24,1.14.51L55,120l.79.36.59.28,1.24.58.74.36,1.08.52,1,.49,1.29.64,1.35.69,1.43.73c.91.48,1.81,1,2.7,1.45l.36.19c.91.49,1.82,1,2.72,1.51l.84.48a3.59,3.59,0,0,1,.38.21l.14.08,2.69,1.57,2.81,1.7c.64.39,1.28.8,1.92,1.2l1.09.69c1.31.84,2.6,1.69,3.89,2.55l1.87,1.28c.5.34,1,.69,1.51,1l0,0,1.18.84,1.45,1L92.15,142c.09.07.2.14.29.22.55.4,1.07.8,1.6,1.21.69.51,1.38,1.05,2.07,1.58l1.61,1.28.19.15,1.07.85,1.39,1.15c1,.81,1.95,1.62,2.91,2.44l1.56,1.35c.81.7,1.6,1.41,2.38,2.12l1.34,1.22.58.52c.45.42.9.83,1.34,1.26,1.13,1.06,2.26,2.13,3.36,3.22l.88.86.7.71c.53.53,1.06,1.07,1.58,1.61.39.39.76.77,1.14,1.17l.44.46c.78.82,1.55,1.64,2.32,2.47s1.53,1.67,2.28,2.51l1.12,1.27q.58.66,1.14,1.32A2.28,2.28,0,0,1,125.73,173.27Z"/><path class="cls-1" d="M79.5,296.36h0l-.48-.22-.27-.12-.44-.21h0c-.74-.35-1.48-.7-2.21-1.07l-.71-.34-1.17-.59-.09-.05-.43-.22c-.87-.45-1.74-.9-2.6-1.37l0,0c-.74-.39-1.47-.8-2.2-1.21l-2.17-1.25s0,0,0,0L65.55,289l-.55-.33c-.15-.09-.3-.18-.44-.28l-.08,0-.07,0-.21-.14c-.67-.42-1.34-.84-2-1.27-.18-.1-.36-.22-.52-.33q-.6-2.55-1.33-5c-.48-1.68-1-3.34-1.6-5a95.5,95.5,0,0,0-6.35-14.17c-.33-.6-.67-1.19-1-1.78-1-1.73-2-3.41-3.15-5.06a93.9,93.9,0,0,0-8.4-10.86.05.05,0,0,0,0,0,93.61,93.61,0,0,0-7.52-7.52c-.46-.41-.93-.83-1.4-1.23s-.74-.63-1.1-.93c-.64-.54-1.28-1.06-1.93-1.57-.44-.35-.88-.7-1.32-1h0l-.18-.13c-.4-.31-.81-.62-1.22-.91s-.94-.7-1.42-1c-.76-.54-1.54-1.08-2.33-1.59-1.65-1.11-3.33-2.15-5.05-3.14-1.27-.74-2.56-1.45-3.86-2.12-1.11-.58-2.25-1.14-3.39-1.66L9,221.55c-.2-.5-.39-1-.58-1.52-.1-.29-.21-.58-.32-.87-.27-.78-.55-1.55-.82-2.33a.11.11,0,0,1,0-.05,6.21,6.21,0,0,1-.2-.61c-.18-.49-.34-1-.51-1.5,0-.08,0-.16-.07-.24-.1-.28-.19-.57-.28-.87-.19-.58-.36-1.16-.54-1.75l-.21-.7a.53.53,0,0,0,0-.12c-.16-.53-.31-1.06-.45-1.6,0,0,0-.1-.05-.16-.09-.32-.18-.63-.26-.95-.13-.48-.27-1-.39-1.47s-.22-.87-.32-1.31-.19-.76-.28-1.14-.22-.89-.31-1.33c0-.07,0-.14,0-.2a2.25,2.25,0,0,1-.08-.33v0a.42.42,0,0,1,0-.16h0a108.56,108.56,0,0,1,13.13,5.25c.36.16.71.34,1.07.51l.51.24c2.76,1.38,5.48,2.86,8.11,4.45.92.55,1.83,1.12,2.74,1.71.46.29.91.58,1.36.89s.89.59,1.34.9c.28.18.55.37.82.56a111.36,111.36,0,0,1,12.48,10.11c.63.58,1.25,1.18,1.86,1.78s1.08,1.07,1.61,1.61a110.25,110.25,0,0,1,9.07,10.48c1,1.26,1.91,2.56,2.82,3.86,1.43,2.05,2.78,4.14,4.07,6.27q2.67,4.41,4.91,9.08c0,.2-.09.41-.12.61h.41a109.45,109.45,0,0,1,6.12,15.95,110.77,110.77,0,0,1,3.5,16c.08.55.16,1.11.23,1.67C79.34,294.93,79.43,295.64,79.5,296.36Z"/><path class="cls-1" d="M127.94,303.83c0,1.48.07,3,.07,4.44a134.5,134.5,0,0,1-31.83-5.6,206.7,206.7,0,0,1,13.58-68.35A158.72,158.72,0,0,1,127.94,303.83Z"/><path class="cls-1" d="M154.24,216.16A173.9,173.9,0,0,0,136,256a174.75,174.75,0,0,0-18.25-39.87,208,208,0,0,1,18.25-30A208,208,0,0,1,154.24,216.16Z"/><path class="cls-1" d="M175.79,302.43a135,135,0,0,1-31.82,5.8,158.8,158.8,0,0,1,18.25-73.91A206.91,206.91,0,0,1,175.79,302.43Z"/><path class="cls-1" d="M268,202.6a136.73,136.73,0,0,1-6,19.63A95.89,95.89,0,0,0,210.45,286a134.1,134.1,0,0,1-17.94,10A111.8,111.8,0,0,1,268,202.6Z"/></g></g></svg>